name rise30.6535peak61.5555fall82.9339.mot
datacolumns 19
datarows 29
range 6.68663400000000 6.73330200000000
endheader
time	ground_force1_vx	ground_force1_vy	ground_force1_vz	ground_force1_px	ground_force1_py	ground_force1_pz	ground_force2_vx	ground_force2_vy	ground_force2_vz	ground_force2_px	ground_force2_py	ground_force2_pz	ground_torque1_x	ground_torque1_y	ground_torque1_z	ground_torque2_x	ground_torque2_y	ground_torque2_z	
6.68663400000000	-9.04765400000000	42.53216300000000	-8.00642600000000	0.30074400000000	0.00000000000000	0.11238100000000	-47.40265100000000	788.14882499999999	-56.06175500000000	0.12634700000000	0.00000000000000	-0.08042400000000	0.00000000000000	-4.35140100000000	0.00000000000000	0.00000000000000	-20.52339500000000	0.00000000000000	
6.68830100000000	-9.90085300000000	49.92231900000000	-8.97485500000000	0.30587400000000	0.00000000000000	0.11380400000000	-48.15545000000000	785.23826499999996	-55.64859600000000	0.12549700000000	0.00000000000000	-0.08031400000000	0.00000000000000	-4.95880400000000	0.00000000000000	0.00000000000000	-20.45982600000000	0.00000000000000	
6.68996600000000	-10.57661900000000	57.42729300000000	-9.84355800000000	0.31057900000000	0.00000000000000	0.11507500000000	-48.92690600000000	782.18932700000005	-55.21536700000000	0.12464400000000	0.00000000000000	-0.08020100000000	0.00000000000000	-5.53060400000000	0.00000000000000	0.00000000000000	-20.39794200000000	0.00000000000000	
6.69163300000000	-11.05011800000000	64.95325000000000	-10.59084100000000	0.31492600000000	0.00000000000000	0.11621900000000	-49.71590800000000	778.99847499999998	-54.76204200000000	0.12378900000000	0.00000000000000	-0.08008500000000	0.00000000000000	-6.05420300000000	0.00000000000000	0.00000000000000	-20.33762000000000	0.00000000000000	
6.69330100000000	-11.30670900000000	72.42922500000000	-11.20232500000000	0.31896800000000	0.00000000000000	0.11725500000000	-50.52120800000000	775.66212599999994	-54.28861700000000	0.12293400000000	0.00000000000000	-0.07996600000000	0.00000000000000	-6.52059700000000	0.00000000000000	0.00000000000000	-20.27871200000000	0.00000000000000	
6.69496800000000	-11.34177800000000	79.80938800000000	-11.67101900000000	0.32274800000000	0.00000000000000	0.11819900000000	-51.34142600000000	772.17666499999996	-53.79510600000000	0.12207700000000	0.00000000000000	-0.07984400000000	0.00000000000000	-6.92454700000000	0.00000000000000	0.00000000000000	-20.22104700000000	0.00000000000000	
6.69665100000000	-11.15978000000000	87.07285000000000	-11.99678400000000	0.32630200000000	0.00000000000000	0.11906200000000	-52.17505100000000	768.53845200000001	-53.28154800000000	0.12122200000000	0.00000000000000	-0.07971800000000	0.00000000000000	-7.26440900000000	0.00000000000000	0.00000000000000	-20.16443300000000	0.00000000000000	
6.69830400000000	-10.77270400000000	94.22145399999999	-12.18532800000000	0.32965600000000	0.00000000000000	0.11985600000000	-53.02044100000000	764.74384599999996	-52.74800100000000	0.12036700000000	0.00000000000000	-0.07958900000000	0.00000000000000	-7.54170600000000	0.00000000000000	0.00000000000000	-20.10865100000000	0.00000000000000	
6.69997400000000	-10.19818900000000	101.27606900000001	-12.24689200000000	0.33283600000000	0.00000000000000	0.12058800000000	-53.87583100000000	760.78921200000002	-52.19455300000000	0.11951400000000	0.00000000000000	-0.07945800000000	0.00000000000000	-7.76050600000000	0.00000000000000	0.00000000000000	-20.05346400000000	0.00000000000000	
6.70163700000000	-9.45750200000000	108.27195900000000	-12.19479500000000	0.33586000000000	0.00000000000000	0.12126700000000	-54.73933000000000	756.67094499999996	-51.62131400000000	0.11866500000000	0.00000000000000	-0.07932200000000	0.00000000000000	-7.92669300000000	0.00000000000000	0.00000000000000	-19.99861200000000	0.00000000000000	
6.70330200000000	-8.57357300000000	115.25378000000001	-12.04398500000000	0.33874500000000	0.00000000000000	0.12189900000000	-55.60893100000000	752.38548700000001	-51.02842300000000	0.11781900000000	0.00000000000000	-0.07918400000000	0.00000000000000	-8.04722500000000	0.00000000000000	0.00000000000000	-19.94381400000000	0.00000000000000	
6.70497300000000	-7.56923300000000	122.27065600000000	-11.80970300000000	0.34150400000000	0.00000000000000	0.12248800000000	-56.48251300000000	747.92934400000001	-50.41604700000000	0.11697800000000	0.00000000000000	-0.07904200000000	0.00000000000000	-8.12941800000000	0.00000000000000	0.00000000000000	-19.88877100000000	0.00000000000000	
6.70663500000000	-6.46576700000000	129.37173799999999	-11.50636100000000	0.34414800000000	0.00000000000000	0.12303900000000	-57.35784600000000	743.29911000000004	-49.78438200000000	0.11614300000000	0.00000000000000	-0.07889700000000	0.00000000000000	-8.18033200000000	0.00000000000000	0.00000000000000	-19.83316500000000	0.00000000000000	
6.70830300000000	-5.28182900000000	136.60249300000001	-11.14667200000000	0.34668700000000	0.00000000000000	0.12355600000000	-58.23259900000000	738.49148600000001	-49.13365800000000	0.11531400000000	0.00000000000000	-0.07874800000000	0.00000000000000	-8.20627200000000	0.00000000000000	0.00000000000000	-19.77666200000000	0.00000000000000	
6.70997000000000	-4.03275700000000	144.00188600000001	-10.74106600000000	0.34913000000000	0.00000000000000	0.12404200000000	-59.10434500000000	733.50330199999996	-48.46413300000000	0.11449300000000	0.00000000000000	-0.07859600000000	0.00000000000000	-8.21243800000000	0.00000000000000	0.00000000000000	-19.71891200000000	0.00000000000000	
6.71163400000000	-2.73025400000000	151.60051700000000	-10.29737900000000	0.35148200000000	0.00000000000000	0.12450100000000	-59.97056900000000	728.33153800000002	-47.77609900000000	0.11368000000000	0.00000000000000	-0.07844000000000	0.00000000000000	-8.20272000000000	0.00000000000000	0.00000000000000	-19.65955000000000	0.00000000000000	
6.71330100000000	-1.38240200000000	159.41967900000000	-9.82079900000000	0.35374900000000	0.00000000000000	0.12493400000000	-60.82867500000000	722.97335099999998	-47.06988300000000	0.11287600000000	0.00000000000000	-0.07828100000000	0.00000000000000	-8.17961800000000	0.00000000000000	0.00000000000000	-19.59820000000000	0.00000000000000	
6.71497100000000	0.00604900000000	167.47123800000000	-9.31401200000000	0.35593700000000	0.00000000000000	0.12534400000000	-61.67599100000000	717.42608800000005	-46.34584600000000	0.11208200000000	0.00000000000000	-0.07811900000000	0.00000000000000	-8.14429700000000	0.00000000000000	0.00000000000000	-19.53447200000000	0.00000000000000	
6.71665100000000	1.43320300000000	175.75819600000000	-8.77752200000000	0.35804900000000	0.00000000000000	0.12573300000000	-62.50978600000000	711.68731300000002	-45.60438400000000	0.11130000000000	0.00000000000000	-0.07795200000000	0.00000000000000	-8.09671900000000	0.00000000000000	0.00000000000000	-19.46797000000000	0.00000000000000	
6.71830900000000	2.89940400000000	184.27577099999999	-8.21006800000000	0.36008800000000	0.00000000000000	0.12610200000000	-63.32726700000000	705.75482699999998	-44.84592900000000	0.11052900000000	0.00000000000000	-0.07778200000000	0.00000000000000	-8.03585200000000	0.00000000000000	0.00000000000000	-19.39828700000000	0.00000000000000	
6.71997400000000	4.40656500000000	193.01281700000001	-7.60910200000000	0.36205800000000	0.00000000000000	0.12645400000000	-64.12559899999999	699.62667999999996	-44.07095000000000	0.10977100000000	0.00000000000000	-0.07760800000000	0.00000000000000	-7.95991300000000	0.00000000000000	0.00000000000000	-19.32501300000000	0.00000000000000	
6.72163700000000	5.95750700000000	201.95340500000000	-6.97127900000000	0.36396000000000	0.00000000000000	0.12678900000000	-64.90190699999999	693.30119200000001	-43.27995300000000	0.10902600000000	0.00000000000000	-0.07743100000000	0.00000000000000	-7.86662600000000	0.00000000000000	0.00000000000000	-19.24773200000000	0.00000000000000	
6.72330800000000	7.55534600000000	211.07843800000001	-6.29291900000000	0.36579600000000	0.00000000000000	0.12710900000000	-65.65329000000000	686.77696800000001	-42.47348300000000	0.10829600000000	0.00000000000000	-0.07725000000000	0.00000000000000	-7.75347600000000	0.00000000000000	0.00000000000000	-19.16602500000000	0.00000000000000	
6.72497500000000	9.20296100000000	220.36715599999999	-5.57041100000000	0.36756800000000	0.00000000000000	0.12741400000000	-66.37682800000000	680.05290600000001	-41.65212200000000	0.10758100000000	0.00000000000000	-0.07706500000000	0.00000000000000	-7.61793300000000	0.00000000000000	0.00000000000000	-19.07947700000000	0.00000000000000	
6.72663700000000	10.90258500000000	229.79845399999999	-4.80054300000000	0.36927700000000	0.00000000000000	0.12770700000000	-67.06959700000000	673.12821199999996	-40.81649200000000	0.10688100000000	0.00000000000000	-0.07687600000000	0.00000000000000	-7.45764300000000	0.00000000000000	0.00000000000000	-18.98767100000000	0.00000000000000	
6.72830800000000	12.65550700000000	239.35194700000000	-3.98075300000000	0.37092400000000	0.00000000000000	0.12798600000000	-67.72867700000000	666.00241000000005	-39.96725500000000	0.10619800000000	0.00000000000000	-0.07668300000000	0.00000000000000	-7.27057400000000	0.00000000000000	0.00000000000000	-18.89019500000000	0.00000000000000	
6.72996800000000	14.46189500000000	249.00875800000000	-3.10928000000000	0.37250900000000	0.00000000000000	0.12825500000000	-68.35116100000000	658.67534699999999	-39.10511000000000	0.10553300000000	0.00000000000000	-0.07648700000000	0.00000000000000	-7.05512000000000	0.00000000000000	0.00000000000000	-18.78664400000000	0.00000000000000	
6.73164000000000	16.32073200000000	258.75202400000001	-2.18524500000000	0.37403300000000	0.00000000000000	0.12851200000000	-68.93417500000000	651.14720299999999	-38.23079900000000	0.10488500000000	0.00000000000000	-0.07628600000000	0.00000000000000	-6.81015200000000	0.00000000000000	0.00000000000000	-18.67662300000000	0.00000000000000	
6.73330200000000	18.22983800000000	268.56714299999999	-1.20865600000000	0.37549600000000	0.00000000000000	0.12875900000000	-69.47488300000001	643.41850399999998	-37.34510100000000	0.10425600000000	0.00000000000000	-0.07608200000000	0.00000000000000	-6.53503400000000	0.00000000000000	0.00000000000000	-18.55974600000000	0.00000000000000	
